# xmcd
#
# Track frame offsets:
#	150
#	15880
#	30092
#	48438
#	60412
#	73182
#
# Disc length: 1139 seconds
#
# Revision: 1
# Processed by: cddbd v1.5.2PL0 Copyright (c) Steve Scherf et al.
# Submitted via: audiograbber 1.83.01
#
DISCID=3c047106
DTITLE=Jim Dandy Band - Jim Dandy Band
DYEAR=1997
DGENRE=Country
TTITLE0=That Was Yesterday
TTITLE1=Rich Parents
TTITLE2=Thorn Between Two Roses
TTITLE3=Life Is Just A Flush Away
TTITLE4=Love Or Strangers
TTITLE5=Don´t Lower The Ceiling
EXTD=
EXTT0=
EXTT1=
EXTT2=
EXTT3=
EXTT4=
EXTT5=
PLAYORDER=
